# xmcd
#
# Track frame offsets:
#	150
#	8419
#	19372
#	28458
#	36971
#	47305
#	58216
#	67273
#	73871
#	85611
#	93513
#	99689
#	112377
#	124130
#	139488
#	151775
#	164619
#	175694
#	189021
#	201048
#	208905
#	222917
#	234102
#	242926
#	258229
#	268483
#
# Disc length: 3685 seconds
#
# Revision: 1
# Processed by: cddbd v1.4PL0 Copyright (c) Steve Scherf et al.
# Submitted via: audiograbber 1.82.02
#
DISCID=850e631a
DTITLE=Hank Snow - Hank Snow Plays Guitar
DYEAR=2002
DGENRE=Country
TTITLE0=Hilo March
TTITLE1=Twelfth Street Rag
TTITLE2=Wabash Blues
TTITLE3=The Birth of the Blues
TTITLE4=In An Old Dutch Garden
TTITLE5=Sentimental Journey
TTITLE6=Over The Waves
TTITLE7=Put On Your Old Grey Bonnet
TTITLE8=San Antonio Rose
TTITLE9=I Was Sorta Wonderin'
TTITLE10=When You And I Were Young, Maggie
TTITLE11=The Rhumba Boogie
TTITLE12=Caribbean
TTITLE13=Anniversary Blue Yodel (Blue Yodel No. 7)
TTITLE14=Blue Rose Of The Rio
TTITLE15=Among My Souvenirs
TTITLE16=Music Makin' Mama From Memphis, Tennessee
TTITLE17=Confused With The Blues
TTITLE18=Golden River
TTITLE19=Do Right Daddy Blues
TTITLE20=I Almost Lost My Mind
TTITLE21=Tangled Mind
TTITLE22=Loose Talk
TTITLE23=That Heart Belongs To Me
TTITLE24=Texas Plains
TTITLE25=Beaumont Ride
EXTD=
EXTT0=
EXTT1=
EXTT2=
EXTT3=
EXTT4=
EXTT5=
EXTT6=
EXTT7=
EXTT8=
EXTT9=
EXTT10=
EXTT11=
EXTT12=
EXTT13=
EXTT14=
EXTT15=
EXTT16=
EXTT17=
EXTT18=
EXTT19=
EXTT20=
EXTT21=
EXTT22=
EXTT23=
EXTT24=
EXTT25=
PLAYORDER=
